{
    "asset" : {
        "generator" : "Khronos glTF Blender I/O v1.7.33",
        "version" : "2.0"
    },
    "scene" : 0,
    "scenes" : [
        {
            "name" : "Scene",
            "nodes" : [
                6
            ]
        }
    ],
    "nodes" : [
        {
            "mesh" : 0,
            "name" : "Icosphere",
            "rotation" : [
                -0.003605374600738287,
                -0.15044628083705902,
                -0.22976429760456085,
                0.9615411162376404
            ],
            "scale" : [
                0.8927509188652039,
                0.6784172654151917,
                1.006990909576416
            ],
            "translation" : [
                1.3572577238082886,
                -1.383199691772461,
                1.5618575811386108
            ]
        },
        {
            "mesh" : 1,
            "name" : "Icosphere.002",
            "rotation" : [
                0.9104295372962952,
                -0.2704382538795471,
                0.2768048942089081,
                0.14615167677402496
            ],
            "scale" : [
                1.0522217750549316,
                0.8515280485153198,
                0.8515281081199646
            ],
            "translation" : [
                -1.5861784219741821,
                0.7247670888900757,
                0.6719366908073425
            ]
        },
        {
            "mesh" : 2,
            "name" : "Icosphere.003",
            "rotation" : [
                0.3067208230495453,
                -0.34972256422042847,
                -0.10935230553150177,
                0.8784409761428833
            ],
            "scale" : [
                0.772910475730896,
                0.6407060623168945,
                0.5787162184715271
            ],
            "translation" : [
                -0.6681095361709595,
                1.084822654724121,
                -0.054056406021118164
            ]
        },
        {
            "mesh" : 3,
            "name" : "Icosphere.004",
            "rotation" : [
                0.109650157392025,
                -0.1564217060804367,
                -0.5144904255867004,
                0.8359478116035461
            ],
            "scale" : [
                0.5080199837684631,
                0.3860533833503723,
                0.5730283260345459
            ],
            "translation" : [
                2.305906295776367,
                -1.2156238555908203,
                1.7777457237243652
            ]
        },
        {
            "mesh" : 4,
            "name" : "Icosphere.005",
            "rotation" : [
                0.08250951766967773,
                -0.22061435878276825,
                0.03369953855872154,
                0.9712805151939392
            ],
            "scale" : [
                0.6775667667388916,
                0.5148950219154358,
                0.764271080493927
            ],
            "translation" : [
                1.2861475944519043,
                -0.37945687770843506,
                1.5392882823944092
            ]
        },
        {
            "mesh" : 5,
            "name" : "Plane",
            "rotation" : [
                -0.020472262054681778,
                -0.24990037083625793,
                -0.23977991938591003,
                0.9378892779350281
            ],
            "scale" : [
                4.538313388824463,
                4.538313865661621,
                4.538313388824463
            ],
            "translation" : [
                -1.0420410633087158,
                -3.684331178665161,
                0.7202551960945129
            ]
        },
        {
            "children" : [
                0,
                1,
                2,
                3,
                4,
                5
            ],
            "mesh" : 6,
            "name" : "Icosphere.001",
            "rotation" : [
                0.020472243428230286,
                0.24990031123161316,
                0.23977990448474884,
                0.9378892779350281
            ],
            "scale" : [
                0.5002284646034241,
                0.5002284049987793,
                0.5002284646034241
            ],
            "translation" : [
                -0.586291491985321,
                1.8399765491485596,
                -0.26257196068763733
            ]
        }
    ],
    "materials" : [
        {
            "doubleSided" : true,
            "name" : "leef",
            "pbrMetallicRoughness" : {
                "baseColorFactor" : [
                    0.21568791568279266,
                    0.5457157492637634,
                    0.07008232921361923,
                    1
                ],
                "metallicFactor" : 0,
                "roughnessFactor" : 0.5
            }
        },
        {
            "doubleSided" : true,
            "name" : "wood",
            "pbrMetallicRoughness" : {
                "baseColorFactor" : [
                    0.1743496060371399,
                    0.036832597106695175,
                    0.0192420594394207,
                    1
                ],
                "metallicFactor" : 0,
                "roughnessFactor" : 0.5
            }
        }
    ],
    "meshes" : [
        {
            "name" : "Icosphere.001",
            "primitives" : [
                {
                    "attributes" : {
                        "POSITION" : 0,
                        "NORMAL" : 1,
                        "TEXCOORD_0" : 2
                    },
                    "indices" : 3,
                    "material" : 0
                }
            ]
        },
        {
            "name" : "Icosphere.003",
            "primitives" : [
                {
                    "attributes" : {
                        "POSITION" : 4,
                        "NORMAL" : 5,
                        "TEXCOORD_0" : 6
                    },
                    "indices" : 3,
                    "material" : 0
                }
            ]
        },
        {
            "name" : "Icosphere.004",
            "primitives" : [
                {
                    "attributes" : {
                        "POSITION" : 7,
                        "NORMAL" : 8,
                        "TEXCOORD_0" : 9
                    },
                    "indices" : 3,
                    "material" : 0
                }
            ]
        },
        {
            "name" : "Icosphere.005",
            "primitives" : [
                {
                    "attributes" : {
                        "POSITION" : 10,
                        "NORMAL" : 11,
                        "TEXCOORD_0" : 12
                    },
                    "indices" : 3,
                    "material" : 0
                }
            ]
        },
        {
            "name" : "Icosphere.006",
            "primitives" : [
                {
                    "attributes" : {
                        "POSITION" : 13,
                        "NORMAL" : 14,
                        "TEXCOORD_0" : 15
                    },
                    "indices" : 3,
                    "material" : 0
                }
            ]
        },
        {
            "name" : "Plane",
            "primitives" : [
                {
                    "attributes" : {
                        "POSITION" : 16,
                        "NORMAL" : 17
                    },
                    "indices" : 18,
                    "material" : 1
                }
            ]
        },
        {
            "name" : "Icosphere.002",
            "primitives" : [
                {
                    "attributes" : {
                        "POSITION" : 19,
                        "NORMAL" : 20,
                        "TEXCOORD_0" : 21
                    },
                    "indices" : 3,
                    "material" : 0
                }
            ]
        }
    ],
    "accessors" : [
        {
            "bufferView" : 0,
            "componentType" : 5126,
            "count" : 240,
            "max" : [
                0.9510578513145447,
                1,
                0.9999999403953552
            ],
            "min" : [
                -0.9510578513145447,
                -1,
                -0.9999999403953552
            ],
            "type" : "VEC3"
        },
        {
            "bufferView" : 1,
            "componentType" : 5126,
            "count" : 240,
            "type" : "VEC3"
        },
        {
            "bufferView" : 2,
            "componentType" : 5126,
            "count" : 240,
            "type" : "VEC2"
        },
        {
            "bufferView" : 3,
            "componentType" : 5123,
            "count" : 240,
            "type" : "SCALAR"
        },
        {
            "bufferView" : 4,
            "componentType" : 5126,
            "count" : 240,
            "max" : [
                0.9510578513145447,
                1,
                0.9999999403953552
            ],
            "min" : [
                -0.9510578513145447,
                -1,
                -0.9999999403953552
            ],
            "type" : "VEC3"
        },
        {
            "bufferView" : 5,
            "componentType" : 5126,
            "count" : 240,
            "type" : "VEC3"
        },
        {
            "bufferView" : 6,
            "componentType" : 5126,
            "count" : 240,
            "type" : "VEC2"
        },
        {
            "bufferView" : 7,
            "componentType" : 5126,
            "count" : 240,
            "max" : [
                0.9510578513145447,
                1,
                0.9999999403953552
            ],
            "min" : [
                -0.9510578513145447,
                -1,
                -0.9999999403953552
            ],
            "type" : "VEC3"
        },
        {
            "bufferView" : 8,
            "componentType" : 5126,
            "count" : 240,
            "type" : "VEC3"
        },
        {
            "bufferView" : 9,
            "componentType" : 5126,
            "count" : 240,
            "type" : "VEC2"
        },
        {
            "bufferView" : 10,
            "componentType" : 5126,
            "count" : 240,
            "max" : [
                0.9510578513145447,
                1,
                0.9999999403953552
            ],
            "min" : [
                -0.9510578513145447,
                -1,
                -0.9999999403953552
            ],
            "type" : "VEC3"
        },
        {
            "bufferView" : 11,
            "componentType" : 5126,
            "count" : 240,
            "type" : "VEC3"
        },
        {
            "bufferView" : 12,
            "componentType" : 5126,
            "count" : 240,
            "type" : "VEC2"
        },
        {
            "bufferView" : 13,
            "componentType" : 5126,
            "count" : 240,
            "max" : [
                0.9510578513145447,
                1,
                0.9999999403953552
            ],
            "min" : [
                -0.9510578513145447,
                -1,
                -0.9999999403953552
            ],
            "type" : "VEC3"
        },
        {
            "bufferView" : 14,
            "componentType" : 5126,
            "count" : 240,
            "type" : "VEC3"
        },
        {
            "bufferView" : 15,
            "componentType" : 5126,
            "count" : 240,
            "type" : "VEC2"
        },
        {
            "bufferView" : 16,
            "componentType" : 5126,
            "count" : 750,
            "max" : [
                0.28786501288414,
                0.7905157208442688,
                0.20925679802894592
            ],
            "min" : [
                -0.5156853199005127,
                -0.013096388429403305,
                -0.14282608032226562
            ],
            "type" : "VEC3"
        },
        {
            "bufferView" : 17,
            "componentType" : 5126,
            "count" : 750,
            "type" : "VEC3"
        },
        {
            "bufferView" : 18,
            "componentType" : 5123,
            "count" : 1116,
            "type" : "SCALAR"
        },
        {
            "bufferView" : 19,
            "componentType" : 5126,
            "count" : 240,
            "max" : [
                0.9510578513145447,
                1,
                0.9999999403953552
            ],
            "min" : [
                -0.9510578513145447,
                -1,
                -0.9999999403953552
            ],
            "type" : "VEC3"
        },
        {
            "bufferView" : 20,
            "componentType" : 5126,
            "count" : 240,
            "type" : "VEC3"
        },
        {
            "bufferView" : 21,
            "componentType" : 5126,
            "count" : 240,
            "type" : "VEC2"
        }
    ],
    "bufferViews" : [
        {
            "buffer" : 0,
            "byteLength" : 2880,
            "byteOffset" : 0
        },
        {
            "buffer" : 0,
            "byteLength" : 2880,
            "byteOffset" : 2880
        },
        {
            "buffer" : 0,
            "byteLength" : 1920,
            "byteOffset" : 5760
        },
        {
            "buffer" : 0,
            "byteLength" : 480,
            "byteOffset" : 7680
        },
        {
            "buffer" : 0,
            "byteLength" : 2880,
            "byteOffset" : 8160
        },
        {
            "buffer" : 0,
            "byteLength" : 2880,
            "byteOffset" : 11040
        },
        {
            "buffer" : 0,
            "byteLength" : 1920,
            "byteOffset" : 13920
        },
        {
            "buffer" : 0,
            "byteLength" : 2880,
            "byteOffset" : 15840
        },
        {
            "buffer" : 0,
            "byteLength" : 2880,
            "byteOffset" : 18720
        },
        {
            "buffer" : 0,
            "byteLength" : 1920,
            "byteOffset" : 21600
        },
        {
            "buffer" : 0,
            "byteLength" : 2880,
            "byteOffset" : 23520
        },
        {
            "buffer" : 0,
            "byteLength" : 2880,
            "byteOffset" : 26400
        },
        {
            "buffer" : 0,
            "byteLength" : 1920,
            "byteOffset" : 29280
        },
        {
            "buffer" : 0,
            "byteLength" : 2880,
            "byteOffset" : 31200
        },
        {
            "buffer" : 0,
            "byteLength" : 2880,
            "byteOffset" : 34080
        },
        {
            "buffer" : 0,
            "byteLength" : 1920,
            "byteOffset" : 36960
        },
        {
            "buffer" : 0,
            "byteLength" : 9000,
            "byteOffset" : 38880
        },
        {
            "buffer" : 0,
            "byteLength" : 9000,
            "byteOffset" : 47880
        },
        {
            "buffer" : 0,
            "byteLength" : 2232,
            "byteOffset" : 56880
        },
        {
            "buffer" : 0,
            "byteLength" : 2880,
            "byteOffset" : 59112
        },
        {
            "buffer" : 0,
            "byteLength" : 2880,
            "byteOffset" : 61992
        },
        {
            "buffer" : 0,
            "byteLength" : 1920,
            "byteOffset" : 64872
        }
    ],
    "buffers" : [
        {
            "byteLength" : 66792,
            "uri" : "data:application/octet-stream;base64,"
        }
    ]
}
